<svg xmlns="http://www.w3.org/2000/svg" xmlns:xlink="http://www.w3.org/1999/xlink" version="1.1" x="0px" y="0px" viewBox="0 0 100 125" enable-background="new 0 0 100 100" xml:space="preserve"><polygon points="5.065,64.876 11.25,57.455 16.245,41.233 35.661,24.302 57.156,33.051 75.328,39.807 83.577,44.353 89.19,45.637   92.128,43.188 90.654,38.049 85.659,32.579 94.398,22.942 92.651,29.4 88.411,32.567 92.545,37.107 94.935,44.028 90.075,48.75   83.297,48.453 84.826,52.522 84.993,58.41 88.571,62.334 91.677,71.79 91.319,72.705 91.415,77.053 86.038,77.058 87.002,73.716   88.037,72.449 86.265,68.626 83.292,66.01 75.002,63.691 69.27,59.123 68.961,55.699 66.956,49.13 67.915,55.567 67.558,58.577   49.409,57.935 49.64,55.029 48.41,58.101 41.077,63.401 45.359,67.493 49.164,63.401 53.59,64.012 51.446,67.208 49.735,67.112   47.071,71.013 35.559,67.303 34.227,61.975 37.271,56.36 36.018,51.688 35.463,45.896 34.912,51.688 35.661,55.604 30.516,55.029   24.387,49.847 20.545,50.094 24.03,50.703 29.465,56.267 31.927,60.595 32.212,62.569 30.56,62.764 30.659,64.995 28.947,66.993   23.524,64.782 19.527,65.281 16.388,63.069 6.976,67.496 14.247,59.001 "/><text x="0" y="115" fill="#000000" font-size="5px" font-weight="bold" font-family="'Helvetica Neue', Helvetica, Arial-Unicode, Arial, Sans-serif">Created by m. turan ercan</text><text x="0" y="120" fill="#000000" font-size="5px" font-weight="bold" font-family="'Helvetica Neue', Helvetica, Arial-Unicode, Arial, Sans-serif">from the Noun Project</text></svg>